<?xml version="1.0" encoding="UTF-8"?>
<svg id="Layer_2" data-name="Layer 2" xmlns="http://www.w3.org/2000/svg" width="689.97" height="840.71" viewBox="0 0 689.97 840.71">
  <g id="Layer_1-2" data-name="Layer 1">
    <path id="C2D" d="M153.78,836.71c-5.78,0-13.48-12.04-23.12-36.12-9.63-24.08-15.25-54.26-16.86-90.54-29.22-4.17-53.62-16.29-73.2-36.36-19.59-20.06-29.38-48.08-29.38-84.04,0-39.17,9.31-79.71,27.93-121.61,18.62-41.9,43.5-82.91,74.65-123.05-36.93-8.35-64.46-24-82.6-46.96-18.14-22.95-27.21-49.2-27.21-78.74,0-24.08,8.99-48.64,26.97-73.69,17.98-25.04,42.62-48.32,73.93-69.83,31.3-21.51,66.94-38.85,106.92-52.02,39.97-13.16,81.95-19.75,125.94-19.75,10.6,0,19.75.72,27.45,2.17,7.7,1.44,11.56,3.45,11.56,6.02s-2.09,3.85-6.26,3.85c-3.54,0-8.27-.32-14.21-.96-5.95-.64-12.93-.96-20.95-.96-32.11,0-66.15,6.1-102.1,18.3-35.96,12.21-69.76,28.82-101.38,49.85-31.63,21.03-57.39,45.03-77.3,72-19.91,26.97-29.86,55.23-29.86,84.76,0,20.55,8.43,39.74,25.28,57.55,16.86,17.82,41.01,30.27,72.48,37.33,32.75-40.46,70.15-78.66,112.22-114.63,42.06-35.96,86.37-67.67,132.92-95.12,46.55-27.45,92.95-49.04,139.19-64.78,46.23-15.73,89.9-23.6,131-23.6,13.8,0,25.28,2.65,34.44,7.95,9.15,5.3,13.73,14.53,13.73,27.69,0,21.84-10.28,45.11-30.82,69.83-20.55,24.73-48.16,48.97-82.84,72.72-34.68,23.76-73.53,45.59-116.55,65.5-43.03,19.91-87.34,36.2-132.92,48.88-45.6,12.69-89.1,19.99-130.52,21.91-43.03,47.2-78.59,93.6-106.68,139.19-28.1,45.59-42.14,85.09-42.14,118.48,0,25.37,6.34,45.36,19.02,59.96,12.68,14.61,29.78,24.16,51.29,28.65,0-43.99,8.1-86.28,24.32-126.9,16.21-40.61,37.97-76.89,65.26-108.84,27.29-31.94,57.87-57.15,91.75-75.61,33.87-18.46,68.63-27.69,104.27-27.69,26.97,0,47.6,6.18,61.89,18.54,14.28,12.36,21.43,28.66,21.43,48.89,0,27.62-8.84,57.87-26.49,90.78-17.66,32.92-42.31,64.22-73.93,93.91-31.63,29.7-68.39,54.11-110.29,73.21-41.9,19.11-87.1,28.65-135.58,28.65-3.85,0-6.74-.17-8.67-.48.64,17.34,2.96,37.81,6.98,61.41,4.01,23.6,11.15,42.14,21.43,55.63,1.28,1.6,1.93,2.89,1.93,3.85v2.41c0,1.6-1.44,2.41-4.33,2.41ZM141.74,698.97c26.01,0,52.81-7.06,80.43-21.19,27.61-14.13,54.26-32.51,79.95-55.14,25.69-22.64,48.8-47.03,69.35-73.21,20.54-26.16,36.85-51.77,48.88-76.82,12.04-25.04,18.06-46.55,18.06-64.54,0-25.04-14.77-37.56-44.31-37.56-27.29,0-56.35,8.43-87.17,25.28-30.82,16.86-59.8,40.21-86.93,70.07-27.14,29.86-49.29,64.62-66.46,104.27-17.18,39.66-25.76,82.28-25.76,127.87v.48c2.24.33,4.57.48,6.98.48h6.98ZM204.35,337.28c35.32-3.53,74-12.36,116.07-26.49,42.06-14.12,83.88-31.3,125.46-51.53,41.58-20.23,79.63-41.74,114.14-64.54,34.51-22.79,62.21-44.86,83.08-66.22,20.87-21.35,31.3-39.89,31.3-55.63,0-9.31-3.45-15.89-10.35-19.75-6.91-3.85-15.98-5.78-27.21-5.78-23.76,0-52.98,7.95-87.66,23.84-34.67,15.89-71.93,37.57-111.73,65.02-39.81,27.45-79.79,58.44-119.92,92.95-40.14,34.52-77.86,70.56-113.18,108.12Z" style="stroke: #000; stroke-miterlimit: 10; stroke-width: 8px;"/>
  </g>
</svg>