<?xml version="1.0" encoding="UTF-8"?>
<svg id="Layer_2" data-name="Layer 2" xmlns="http://www.w3.org/2000/svg" width="1011.09" height="181.64" viewBox="0 0 1011.09 181.64">
  <g id="Layer_1-2" data-name="Layer 1">
    <g>
      <g>
        <path d="M316.75,76.18c0-37.21,22.74-64.08,57.71-64.08,30.83,0,49.96,19.64,52.88,44.27h-19.81c-2.24-12.06-9.82-27.91-33.42-27.91-27.22,0-37.55,23.08-37.55,47.54s10.34,47.72,37.55,47.72c23.77,0,32.21-15.85,33.42-30.83h19.81c-2.76,27.39-22.05,47.2-53.06,47.2-34.97,0-57.53-26.87-57.53-63.91Z"/>
        <path d="M434.57,14.51h16.88v123.16h-16.88V14.51Z"/>
        <path d="M462.82,110.63v-60.81h16.88v56.16c0,11.89,5.17,19.81,17.91,19.81,14.47,0,23.77-8.78,23.77-22.05v-53.92h16.88v87.85h-16.88v-11.02h-.34c-4.65,6.72-13.78,13.44-28.94,13.44-16.19,0-29.28-9.3-29.28-29.46Z"/>
        <path d="M567.55,126.82h-.34v10.85h-16.88V14.51h16.88v45.65h.34c4.82-6.2,13.26-12.92,27.04-12.92,22.39,0,39.45,17.57,39.45,46.51s-17.05,46.34-39.45,46.34c-13.78,0-22.22-6.2-27.04-13.26ZM591.83,126.13c16.54,0,24.46-15.16,24.46-32.38s-7.92-32.38-24.46-32.38c-15.16,0-24.46,12.4-24.46,32.38s9.3,32.38,24.46,32.38Z"/>
        <path d="M635.76,108.39h17.05c.69,10.16,6.89,18.09,23.25,18.09,14.81,0,18.78-6.55,18.78-12.92,0-11.02-11.71-12.23-23.08-14.64-15.33-3.62-32.9-8.1-32.9-26.36,0-15.16,12.23-25.32,33.42-25.32,24.12,0,35.66,12.92,36.86,28.08h-17.05c-1.21-6.72-4.82-14.47-19.47-14.47-11.37,0-16.19,4.48-16.19,11.02,0,9.13,9.82,9.99,22.22,12.75,16.19,3.79,33.76,8.44,33.76,28.08,0,17.05-13.09,27.39-36.17,27.39-26.7,0-39.96-13.78-40.48-31.7Z"/>
        <path d="M723.43,112.87v-49.09h-12.75v-13.95h12.75v-28.25h16.88v28.25h16.88v13.95h-16.88v49.61c0,9.3,2.58,11.37,9.82,11.37,2.93,0,4.31-.17,7.24-.69v13.61c-4.31.86-7.06,1.03-10.68,1.03-14.47,0-23.25-5.51-23.25-25.84Z"/>
        <path d="M759.95,114.93c0-19.64,14.81-25.49,36.69-29.63,13.78-2.58,22.22-4.31,22.22-12.92,0-6.37-3.79-11.71-16.71-11.71-15.33,0-19.98,4.82-20.84,16.54h-17.23c.86-16.88,11.89-30.15,38.76-30.15,18.09,0,32.56,7.58,32.56,30.32v40.31c0,6.37.86,9.65,4.13,9.65.52,0,1.03,0,2.07-.17v10.34c-2.93.69-5.86,1.03-8.61,1.03-8.44,0-12.92-3.27-13.95-13.26h-.34c-5.68,9.13-15.67,14.81-29.97,14.81-17.57,0-28.77-10.16-28.77-25.15ZM792.5,126.48c15.16,0,26.35-7.75,26.35-23.08v-12.57c-2.76,2.58-10.34,4.48-19.29,6.37-15.5,3.1-22.05,7.41-22.05,16.54,0,8.27,4.48,12.75,14.99,12.75Z"/>
        <path d="M843.49,93.75c0-27.56,17.05-46.51,43.06-46.51,22.57,0,37.55,14.64,39.62,34.45h-17.4c-.86-9.13-6.03-20.5-22.05-20.5-18.78,0-25.67,16.02-25.67,32.56s6.89,32.38,25.67,32.38c16.19,0,21.19-11.02,22.05-21.02h17.4c-1.21,20.15-16.88,35.14-39.45,35.14-26.18,0-43.24-18.95-43.24-46.51Z"/>
        <path d="M932.71,14.51h16.88v72.52l38.41-37.21h19.46l-33.76,32.21,37.38,55.64h-19.98l-28.77-44.96-12.75,12.23v32.73h-16.88V14.51Z"/>
      </g>
      <polygon points="286.54 87.79 210.37 87.79 210.37 131.69 146.29 131.69 146.29 87.79 76.17 87.79 76.17 49.94 222.46 49.94 222.46 0 70.12 0 70.12 43.9 0 43.9 0 93.84 70.12 93.84 70.12 137.74 140.24 137.74 140.24 181.64 216.41 181.64 216.41 137.74 286.54 137.74 286.54 87.79"/>
    </g>
  </g>
</svg>