<?xml version="1.0" encoding="UTF-8"?>
<svg id="Layer_2" data-name="Layer 2" xmlns="http://www.w3.org/2000/svg" width="1009.84" height="291.77" viewBox="0 0 1009.84 291.77" fill="white">
  <g id="Layer_1-2" data-name="Layer 1">
    <g>
      <polygon points="286.54 87.79 210.37 87.79 210.37 131.69 146.29 131.69 146.29 87.79 76.17 87.79 76.17 49.94 222.46 49.94 222.46 0 70.12 0 70.12 43.9 0 43.9 0 93.84 70.12 93.84 70.12 137.74 140.24 137.74 140.24 181.64 216.41 181.64 216.41 137.74 286.54 137.74 286.54 87.79"/>
      <g>
        <path d="M317.84,76.35c0-37.08,22.66-63.86,57.51-63.86,30.73,0,49.79,19.57,52.71,44.12h-19.74c-2.23-12.02-9.79-27.81-33.31-27.81-27.12,0-37.43,23.01-37.43,47.38s10.3,47.56,37.43,47.56c23.69,0,32.1-15.79,33.31-30.73h19.74c-2.75,27.3-21.97,47.04-52.88,47.04-34.85,0-57.34-26.78-57.34-63.69Z"/>
        <path d="M435.26,14.89h16.83v122.75h-16.83V14.89Z"/>
        <path d="M463.41,110.69v-60.6h16.83v55.97c0,11.85,5.15,19.74,17.85,19.74,14.42,0,23.69-8.76,23.69-21.97v-53.74h16.82v87.56h-16.82v-10.99h-.34c-4.64,6.7-13.73,13.39-28.84,13.39-16.14,0-29.19-9.27-29.19-29.36Z"/>
        <path d="M567.79,126.83h-.34v10.82h-16.83V14.89h16.83v45.5h.34c4.81-6.18,13.22-12.88,26.95-12.88,22.32,0,39.32,17.51,39.32,46.35s-17,46.18-39.32,46.18c-13.73,0-22.15-6.18-26.95-13.22ZM592,126.14c16.48,0,24.38-15.11,24.38-32.28s-7.9-32.28-24.38-32.28c-15.11,0-24.38,12.36-24.38,32.28s9.27,32.28,24.38,32.28Z"/>
        <path d="M635.77,108.46h17c.69,10.13,6.87,18.03,23.18,18.03,14.76,0,18.71-6.52,18.71-12.88,0-10.99-11.67-12.19-23.01-14.59-15.28-3.61-32.79-8.07-32.79-26.27,0-15.11,12.19-25.24,33.31-25.24,24.04,0,35.54,12.88,36.74,27.98h-17c-1.2-6.7-4.81-14.42-19.4-14.42-11.33,0-16.14,4.46-16.14,10.99,0,9.1,9.79,9.96,22.15,12.7,16.14,3.78,33.65,8.41,33.65,27.98,0,17-13.05,27.3-36.05,27.3-26.61,0-39.83-13.73-40.34-31.59Z"/>
        <path d="M723.15,112.92v-48.93h-12.7v-13.91h12.7v-28.15h16.82v28.15h16.83v13.91h-16.83v49.44c0,9.27,2.58,11.33,9.79,11.33,2.92,0,4.29-.17,7.21-.69v13.56c-4.29.86-7.04,1.03-10.64,1.03-14.42,0-23.18-5.49-23.18-25.75Z"/>
        <path d="M759.54,114.98c0-19.57,14.76-25.41,36.57-29.53,13.73-2.58,22.15-4.29,22.15-12.88,0-6.35-3.78-11.67-16.65-11.67-15.28,0-19.91,4.81-20.77,16.48h-17.17c.86-16.83,11.85-30.04,38.63-30.04,18.03,0,32.45,7.55,32.45,30.22v40.17c0,6.35.86,9.61,4.12,9.61.52,0,1.03,0,2.06-.17v10.3c-2.92.69-5.84,1.03-8.58,1.03-8.41,0-12.88-3.26-13.91-13.22h-.34c-5.66,9.1-15.62,14.76-29.87,14.76-17.51,0-28.67-10.13-28.67-25.07ZM791.99,126.48c15.11,0,26.27-7.73,26.27-23.01v-12.53c-2.75,2.58-10.3,4.46-19.23,6.35-15.45,3.09-21.97,7.38-21.97,16.48,0,8.24,4.46,12.7,14.94,12.7Z"/>
        <path d="M842.8,93.86c0-27.47,17-46.35,42.92-46.35,22.49,0,37.43,14.59,39.49,34.34h-17.34c-.86-9.1-6.01-20.43-21.97-20.43-18.71,0-25.58,15.97-25.58,32.45s6.87,32.28,25.58,32.28c16.14,0,21.12-10.99,21.97-20.94h17.34c-1.2,20.09-16.82,35.02-39.31,35.02-26.1,0-43.09-18.88-43.09-46.35Z"/>
        <path d="M931.73,14.89h16.83v72.28l38.28-37.08h19.4l-33.65,32.1,37.25,55.45h-19.91l-28.67-44.81-12.7,12.19v32.62h-16.83V14.89Z"/>
        <path d="M592.51,249.37h9.96c1.54,20.95,15.28,33.99,40.86,33.99,23.18,0,32.45-12.02,32.62-26.44,0-19.4-13.39-23.35-40-28.84-21.46-4.46-38.46-11.16-38.46-32.62,0-19.57,16.14-30.73,40-30.73,25.75,0,42.23,13.05,43.95,36.4h-9.96c-1.89-17.51-12.02-27.98-33.82-27.98-19.06,0-30.22,8.07-30.22,22.15,0,17.51,14.42,21.12,34.68,25.41,26.44,5.49,43.78,12.36,43.78,36.05,0,19.23-14.25,34.85-42.23,34.85s-49.62-14.42-51.16-42.23Z"/>
        <path d="M699.12,267.74v-58.2h-12.88v-7.55h12.88v-29.19h8.58v29.19h18.54v7.55h-18.54v58.03c0,12.36,2.58,15.11,12.19,15.11,2.58,0,3.95-.17,6.35-.52v7.21c-3.09.52-5.15.69-7.55.69-12.7,0-19.57-4.12-19.57-22.32Z"/>
        <path d="M732.94,263.79v-61.8h8.58v60.43c0,10.82,4.81,21.46,21.46,21.46,17.68,0,29.36-13.91,29.36-25.92v-55.97h8.58v87.56h-8.58v-14.25h-.34c-5.15,8.07-14.76,15.97-31.07,15.97-15.45,0-27.98-8.76-27.98-27.47Z"/>
        <path d="M810.53,245.76c0-28.5,16.83-45.5,37.77-45.5,16.48,0,26.44,8.93,31.59,20.09h.34v-53.56h8.58v122.75h-8.58v-17.51h-.34c-5.15,10.3-15.11,19.57-31.76,19.57-20.77,0-37.6-17-37.6-45.84ZM849.5,284.22c17.34,0,30.73-14.76,30.73-38.46s-13.39-38.11-30.73-38.11c-18.54,0-29.87,16.14-29.87,38.11s11.33,38.46,29.87,38.46Z"/>
        <path d="M901.34,171.77h12.36v12.36h-12.36v-12.36ZM903.23,201.98h8.58v87.56h-8.58v-87.56Z"/>
        <path d="M921.43,245.93c0-27.13,15.62-45.84,41.38-45.84s41.2,18.71,41.2,45.84-15.62,45.84-41.2,45.84-41.38-18.71-41.38-45.84ZM962.8,284.39c21.29,0,32.1-16.82,32.1-38.46s-10.82-38.28-32.1-38.28-32.45,16.65-32.45,38.28,10.99,38.46,32.45,38.46Z"/>
      </g>
    </g>
  </g>
</svg>
