<?xml version="1.0" encoding="UTF-8"?>
<svg id="Layer_2" data-name="Layer 2" xmlns="http://www.w3.org/2000/svg" width="996.04" height="183.85" viewBox="0 0 996.04 183.85">
  <g id="Layer_1-2" data-name="Layer 1">
    <g>
      <path d="M0,91.92C0,38.55,32.62,0,82.78,0c44.23,0,71.66,28.17,75.86,63.51h-28.42c-3.21-17.3-14.08-40.03-47.94-40.03-39.04,0-53.87,33.11-53.87,68.2s14.83,68.45,53.87,68.45c34.1,0,46.21-22.73,47.94-44.23h28.42c-3.95,39.29-31.63,67.71-76.11,67.71C32.37,183.6,0,145.05,0,91.92Z"/>
      <path d="M169.02,3.46h24.22v176.68h-24.22V3.46Z"/>
      <path d="M209.54,141.35V54.12h24.22v80.56c0,17.05,7.41,28.42,25.7,28.42,20.76,0,34.1-12.6,34.1-31.63V54.12h24.22v126.02h-24.22v-15.81h-.49c-6.67,9.64-19.77,19.27-41.51,19.27-23.23,0-42.01-13.34-42.01-42.25Z"/>
      <path d="M359.77,164.57h-.49v15.57h-24.22V3.46h24.22v65.48h.49c6.92-8.9,19.03-18.53,38.8-18.53,32.12,0,56.59,25.21,56.59,66.72s-24.46,66.47-56.59,66.47c-19.77,0-31.88-8.9-38.8-19.03ZM394.61,163.58c23.72,0,35.09-21.74,35.09-46.46s-11.37-46.46-35.09-46.46c-21.74,0-35.09,17.79-35.09,46.46s13.34,46.46,35.09,46.46Z"/>
      <path d="M457.62,138.13h24.46c.99,14.58,9.89,25.95,33.36,25.95,21.25,0,26.93-9.39,26.93-18.53,0-15.81-16.8-17.54-33.11-21-21.99-5.19-47.2-11.62-47.2-37.81,0-21.74,17.54-36.33,47.94-36.33,34.6,0,51.15,18.53,52.88,40.28h-24.46c-1.73-9.64-6.92-20.76-27.92-20.76-16.31,0-23.23,6.43-23.23,15.81,0,13.1,14.08,14.33,31.88,18.29,23.23,5.44,48.43,12.11,48.43,40.28,0,24.46-18.78,39.29-51.89,39.29-38.3,0-57.33-19.77-58.07-45.47Z"/>
      <path d="M583.39,144.56v-70.42h-18.29v-20.02h18.29V13.59h24.22v40.52h24.22v20.02h-24.22v71.17c0,13.35,3.71,16.31,14.08,16.31,4.2,0,6.18-.25,10.38-.99v19.52c-6.18,1.24-10.13,1.48-15.32,1.48-20.76,0-33.36-7.91-33.36-37.07Z"/>
      <path d="M635.77,147.52c0-28.17,21.25-36.57,52.63-42.5,19.77-3.71,31.88-6.18,31.88-18.53,0-9.14-5.44-16.8-23.97-16.8-21.99,0-28.66,6.92-29.9,23.72h-24.71c1.24-24.22,17.05-43.24,55.6-43.24,25.95,0,46.7,10.87,46.7,43.49v57.82c0,9.14,1.24,13.84,5.93,13.84.74,0,1.48,0,2.97-.25v14.83c-4.2.99-8.4,1.48-12.36,1.48-12.11,0-18.53-4.7-20.02-19.03h-.49c-8.15,13.1-22.49,21.25-43,21.25-25.2,0-41.27-14.58-41.27-36.08ZM682.48,164.08c21.74,0,37.81-11.12,37.81-33.11v-18.04c-3.95,3.71-14.83,6.43-27.68,9.14-22.24,4.45-31.63,10.63-31.63,23.72,0,11.86,6.43,18.29,21.5,18.29Z"/>
      <path d="M755.62,117.13c0-39.54,24.46-66.72,61.78-66.72,32.37,0,53.87,21,56.83,49.42h-24.96c-1.24-13.1-8.65-29.41-31.63-29.41-26.94,0-36.82,22.98-36.82,46.7s9.88,46.46,36.82,46.46c23.23,0,30.39-15.81,31.63-30.15h24.96c-1.73,28.91-24.22,50.41-56.59,50.41-37.56,0-62.02-27.18-62.02-66.72Z"/>
      <path d="M883.61,3.46h24.22v104.03l55.1-53.38h27.92l-48.43,46.21,53.62,79.82h-28.66l-41.27-64.5-18.28,17.54v46.95h-24.22V3.46Z"/>
    </g>
  </g>
</svg>