<?xml version="1.0" encoding="UTF-8"?>
<svg id="Layer_2" data-name="Layer 2" xmlns="http://www.w3.org/2000/svg" width="975.37" height="393.65" viewBox="0 0 975.37 393.65">
  <g id="Layer_1-2" data-name="Layer 1">
    <g>
      <path d="M0,90.02C0,37.75,31.94,0,81.06,0c43.31,0,70.17,27.59,74.29,62.19h-27.83c-3.15-16.94-13.79-39.2-46.94-39.2-38.23,0-52.75,32.43-52.75,66.79s14.52,67.03,52.75,67.03c33.39,0,45.25-22.26,46.94-43.32h27.83c-3.87,38.48-30.97,66.3-74.53,66.3C31.7,179.79,0,142.04,0,90.02Z"/>
      <path d="M165.51,3.39h23.71v173.02h-23.71V3.39Z"/>
      <path d="M205.19,138.41V52.99h23.71v78.89c0,16.7,7.26,27.83,25.17,27.83,20.33,0,33.39-12.34,33.39-30.97V52.99h23.71v123.41h-23.71v-15.49h-.48c-6.53,9.44-19.36,18.87-40.65,18.87-22.75,0-41.14-13.07-41.14-41.38Z"/>
      <path d="M352.31,161.16h-.48v15.24h-23.71V3.39h23.71v64.12h.48c6.77-8.71,18.63-18.15,37.99-18.15,31.46,0,55.41,24.68,55.41,65.33s-23.96,65.09-55.41,65.09c-19.36,0-31.22-8.71-37.99-18.63ZM386.42,160.19c23.23,0,34.36-21.29,34.36-45.49s-11.13-45.49-34.36-45.49c-21.29,0-34.36,17.42-34.36,45.49s13.07,45.49,34.36,45.49Z"/>
      <path d="M448.12,135.27h23.96c.97,14.28,9.68,25.41,32.67,25.41,20.81,0,26.38-9.19,26.38-18.15,0-15.49-16.45-17.18-32.43-20.57-21.54-5.08-46.22-11.37-46.22-37.02,0-21.29,17.18-35.57,46.94-35.57,33.88,0,50.09,18.15,51.78,39.44h-23.96c-1.69-9.44-6.78-20.33-27.34-20.33-15.97,0-22.75,6.29-22.75,15.49,0,12.82,13.79,14.03,31.22,17.91,22.75,5.32,47.43,11.86,47.43,39.44,0,23.96-18.39,38.47-50.82,38.47-37.51,0-56.14-19.36-56.86-44.52Z"/>
      <path d="M571.28,141.56v-68.96h-17.91v-19.6h17.91V13.31h23.71v39.68h23.71v19.6h-23.71v69.69c0,13.07,3.63,15.97,13.79,15.97,4.11,0,6.05-.24,10.16-.97v19.12c-6.05,1.21-9.92,1.45-15,1.45-20.33,0-32.67-7.74-32.67-36.3Z"/>
      <path d="M622.58,144.46c0-27.59,20.81-35.81,51.54-41.62,19.36-3.63,31.22-6.05,31.22-18.15,0-8.95-5.32-16.45-23.47-16.45-21.54,0-28.07,6.78-29.28,23.23h-24.2c1.21-23.71,16.7-42.35,54.45-42.35,25.41,0,45.73,10.65,45.73,42.59v56.62c0,8.95,1.21,13.55,5.81,13.55.73,0,1.45,0,2.9-.24v14.52c-4.11.97-8.23,1.45-12.1,1.45-11.86,0-18.15-4.6-19.6-18.63h-.48c-7.98,12.83-22.02,20.81-42.1,20.81-24.68,0-40.41-14.28-40.41-35.33ZM668.31,160.67c21.29,0,37.02-10.89,37.02-32.43v-17.66c-3.87,3.63-14.52,6.29-27.1,8.95-21.78,4.36-30.97,10.4-30.97,23.23,0,11.62,6.29,17.91,21.05,17.91Z"/>
      <path d="M739.93,114.7c0-38.72,23.96-65.33,60.49-65.33,31.7,0,52.75,20.57,55.65,48.4h-24.44c-1.21-12.82-8.47-28.8-30.97-28.8-26.38,0-36.06,22.5-36.06,45.73s9.68,45.49,36.06,45.49c22.75,0,29.76-15.49,30.97-29.52h24.44c-1.69,28.31-23.71,49.36-55.41,49.36-36.78,0-60.74-26.62-60.74-65.33Z"/>
      <path d="M865.27,3.39h23.71v101.87l53.96-52.27h27.34l-47.43,45.25,52.51,78.16h-28.07l-40.41-63.16-17.91,17.18v45.98h-23.71V3.39Z"/>
      <path d="M387.15,333.88h14.03c2.18,29.52,21.54,47.91,57.59,47.91,32.67,0,45.73-16.94,45.98-37.26,0-27.34-18.87-32.91-56.38-40.65-30.25-6.29-54.2-15.73-54.2-45.98,0-27.59,22.75-43.31,56.38-43.31,36.3,0,59.53,18.39,61.95,51.3h-14.03c-2.66-24.68-16.94-39.44-47.67-39.44-26.86,0-42.59,11.37-42.59,31.22,0,24.68,20.33,29.76,48.88,35.81,37.27,7.74,61.7,17.42,61.7,50.82,0,27.1-20.08,49.12-59.53,49.12s-69.93-20.33-72.11-59.53Z"/>
      <path d="M537.41,359.77v-82.03h-18.15v-10.65h18.15v-41.14h12.1v41.14h26.13v10.65h-26.13v81.79c0,17.42,3.63,21.29,17.18,21.29,3.63,0,5.56-.24,8.95-.73v10.16c-4.36.73-7.26.97-10.65.97-17.91,0-27.59-5.81-27.59-31.46Z"/>
      <path d="M585.08,354.2v-87.11h12.1v85.18c0,15.24,6.78,30.25,30.25,30.25,24.92,0,41.38-19.6,41.38-36.54v-78.89h12.1v123.41h-12.1v-20.08h-.48c-7.26,11.37-20.81,22.5-43.8,22.5-21.78,0-39.44-12.34-39.44-38.72Z"/>
      <path d="M694.44,328.79c0-40.17,23.71-64.12,53.24-64.12,23.23,0,37.27,12.58,44.52,28.31h.48v-75.5h12.1v173.02h-12.1v-24.68h-.48c-7.26,14.52-21.29,27.59-44.77,27.59-29.28,0-52.99-23.96-52.99-64.61ZM749.37,383c24.44,0,43.31-20.81,43.31-54.2s-18.87-53.72-43.31-53.72c-26.13,0-42.1,22.75-42.1,53.72s15.97,54.2,42.1,54.2Z"/>
      <path d="M822.44,224.5h17.42v17.42h-17.42v-17.42ZM825.1,267.09h12.1v123.41h-12.1v-123.41Z"/>
      <path d="M850.75,329.04c0-38.23,22.02-64.61,58.32-64.61s58.07,26.38,58.07,64.61-22.02,64.61-58.07,64.61-58.32-26.38-58.32-64.61ZM909.07,383.24c30.01,0,45.25-23.71,45.25-54.2s-15.24-53.96-45.25-53.96-45.73,23.47-45.73,53.96,15.49,54.2,45.73,54.2Z"/>
    </g>
  </g>
</svg>